<svg id="Capa_1" data-name="Capa 1" xmlns="http://www.w3.org/2000/svg" xmlns:xlink="http://www.w3.org/1999/xlink" viewBox="0 0 130 130" width="70" height="70"><defs><style>.cls-1{fill:#c7ced3;}.cls-2{clip-path:url(#clip-path);}.cls-3{fill:#fff;}.cls-4{fill:#2d4c46;}</style><clipPath id="clip-path"><circle class="cls-1" cx="65" cy="65" r="65"/></clipPath></defs><title>Imagenes-e-Iconos</title><circle class="cls-1" cx="65" cy="65" r="65"/><g class="cls-2"><path class="cls-3" d="M88,48A21.36,21.36,0,1,0,56.13,66.57v8h21v-8A21.31,21.31,0,0,0,88,48Z"/><path class="cls-4" d="M83.36,77.62a3,3,0,0,1-3,3H53a3,3,0,0,1-3-3h0a3,3,0,0,1,3-3H80.32a3,3,0,0,1,3,3Z"/><path class="cls-4" d="M83.36,85.21a3,3,0,0,1-3,3H53a3,3,0,0,1-3-3h0a3,3,0,0,1,3-3H80.32a3,3,0,0,1,3,3Z"/><path class="cls-4" d="M66.64,101.81a12,12,0,0,0,12-12H54.61A12,12,0,0,0,66.64,101.81Z"/><path class="cls-4" d="M58.1,41.08q1.42,9.12,3.28,18.17c.45,2.16,1.71,13.93,5.26,13.93s4.93-11.28,5.43-13.4c1.47-6.18,2.7-12.44,3.82-18.7.21-1.2-1.62-1.71-1.83-.51-.76,4.25-1.6,8.48-2.49,12.7-1.08,5.18-1.68,13.81-5.15,18,.74-.9-3.48-13.85-4-16.28q-1.41-7.2-2.53-14.47c-.19-1.21-2-.69-1.83.51Z"/><path class="cls-4" d="M51.92,49.34c9.48-3.7,20.4-3.16,29.89,0,1.17.39,1.67-1.45.51-1.83-9.79-3.26-21.13-3.81-30.9,0-1.13.44-.64,2.28.5,1.83Z"/></g></svg>