<svg id="Capa_1" data-name="Capa 1" xmlns="http://www.w3.org/2000/svg" xmlns:xlink="http://www.w3.org/1999/xlink" viewBox="0 0 130 130" width="70" height="70"><defs><style>.cls-1{fill:#c7ced3;}.cls-2{clip-path:url(#clip-path);}.cls-3{fill:#2d4c46;}.cls-4{fill:#c8c8c8;}.cls-5{fill:#fff;}</style><clipPath id="clip-path"><circle class="cls-1" cx="65" cy="65" r="65"/></clipPath></defs><title>Imagenes-e-Iconos</title><circle class="cls-1" cx="65" cy="65" r="65"/><g class="cls-2"><path class="cls-3" d="M70.51,30.51a28.52,28.52,0,1,1-40.33,0A28.51,28.51,0,0,1,70.51,30.51Z"/><path class="cls-4" d="M64,37a19.34,19.34,0,1,1-27.34,0A19.34,19.34,0,0,1,64,37Z"/><path class="cls-5" d="M51.56,37A3.9,3.9,0,1,1,46,37,3.89,3.89,0,0,1,51.56,37Z"/><path class="cls-3" d="M104.05,98.07a4.47,4.47,0,0,1,0,6.3h0a4.47,4.47,0,0,1-6.31,0L65.56,72.19a4.45,4.45,0,0,1,0-6.3h0a4.45,4.45,0,0,1,6.3,0Z"/></g></svg>